#!OML:ASF E:\Steps\Project 1\Capture day 1\Session 2\Subject.ASF
:FULLY-SPECIFIED
:DEGREES
268
root 11.1348 20.4975 10.2042 -8.39272 -236.748 327.476
lowerback -23.5779 -4.80118 -7.55822
upperback -3.46224 -3.78908 -1.3866
thorax 9.71457 -1.84286 1.59977
lowerneck -0.335206 -0.41155 -3.71284
upperneck 9.17955 -0.76632 6.57483
head 3.08366 -0.210472 2.81496
rclavicle -8.43841e-014 -5.40694e-014
rhumerus -51.6306 -3.77996 -89.8062
rradius 68.4467
rwrist -8.50809
rhand -9.38643 -43.1812
rfingers 7.12502
rthumb 16.5744 -72.4934
lclavicle -8.43841e-014 -5.40694e-014
lhumerus -20.4066 -30.4364 61.0176
lradius 77.1335
lwrist 12.4355
lhand -28.3449 -21.8564
lfingers 7.12502
lthumb -1.71904 8.11644
rfemur -35.6006 19.3252 0.932486
rtibia 25.679
rfoot 13.1072 0.586367
rtoes -22.3661
lfemur -63.1783 -1.06806 -14.8265
ltibia 64.9435
lfoot 18.2729 12.4495
ltoes -39.9685
269
root 11.2312 20.2305 10.2252 -6.26432 -234.258 329.413
lowerback -23.9589 -4.92291 -7.86584
upperback -3.74378 -3.77197 -1.51343
thorax 9.6088 -1.80795 1.63192
lowerneck -0.520063 -0.435233 -3.62632
upperneck 9.25489 -0.790905 6.51677
head 3.14386 -0.215739 2.78122
rclavicle 1.3418e-015 1.74931e-014
rhumerus -51.8924 -4.11237 -89.5409
rradius 68.2026
rwrist -8.07095
rhand -8.51065 -43.028
rfingers 7.12502
rthumb 17.4174 -72.2677
lclavicle 1.3418e-015 1.74931e-014
lhumerus -21.0867 -30.6188 59.688
lradius 78.3403
lwrist 11.5023
lhand -29.354 -20.3764
lfingers 7.12502
lthumb -2.69359 9.58637
rfemur -34.9511 20.0317 0.170334
rtibia 25.1818
rfoot 12.1838 -0.24612
rtoes -21.089
lfemur -64.1028 -0.320856 -15.3896
ltibia 66.515
lfoot 18.0731 12.6143
ltoes -39.4835
270
root 11.3219 19.9524 10.2376 -4.23575 -231.686 331.314
lowerback -24.3841 -5.05039 -8.02972
upperback -3.82797 -3.8027 -1.6086
thorax 9.74496 -1.80778 1.59036
lowerneck -0.731448 -0.490669 -3.48271
upperneck 9.28193 -0.86336 6.51747
head 3.19556 -0.241134 2.7551
rclavicle 1.09605e-013 3.97569e-014
rhumerus -51.8216 -4.33684 -89.4147
rradius 67.9421
rwrist -8.19794
rhand -8.1877 -43.1239
rfingers 7.12502
rthumb 17.7282 -72.3357
lclavicle 1.09605e-013 3.97569e-014
lhumerus -21.1315 -30.5478 58.1001
lradius 79.4282
lwrist 11.5091
lhand -29.5195 -19.6735
lfingers 7.12502
lthumb -2.85345 10.2871
rfemur -34.2873 20.6909 -0.381842
rtibia 24.8573
rfoot 11.4009 -1.55192
rtoes -18.8446
lfemur -65.1566 0.24704 -15.7829
ltibia 68.2284
lfoot 18.009 12.5216
ltoes -39.8032
271
root 11.4133 19.662 10.2448 -2.24832 -229.087 333.476
lowerback -24.8088 -5.06405 -7.77863
upperback -3.71481 -3.81248 -1.66594
thorax 10.0776 -1.8037 1.35474
lowerneck -1.09434 -0.533036 -3.47129
upperneck 9.2969 -0.917334 6.548
head 3.2731 -0.260647 2.76542
rclavicle -5.29264e-015 7.95139e-015
rhumerus -51.6444 -4.58204 -89.3686
rradius 67.771
rwrist -8.68179
rhand -7.89999 -43.29
rfingers 7.12502
rthumb 18.0051 -72.4766
lclavicle -5.29264e-015 7.95139e-015
lhumerus -21.3778 -30.1572 56.4946
lradius 80.7044
lwrist 11.2311
lhand -29.1971 -19.5279
lfingers 7.12502
lthumb -2.54205 10.4367
rfemur -33.4099 21.2648 -0.283627
rtibia 24.6611
rfoot 10.963 -2.95359
rtoes -16.6571
lfemur -66.0931 0.679031 -15.8213
ltibia 69.95
lfoot 18.4481 11.5104
ltoes -42.8438
272
root 11.511 19.3566 10.2527 -0.413783 -226.46 335.647
lowerback -25.1767 -5.16999 -7.50647
upperback -3.67773 -3.97604 -1.58447
thorax 10.3149 -1.86893 1.21464
lowerneck -1.23041 -0.477981 -3.75799
upperneck 9.26573 -0.832777 6.60997
head 3.28805 -0.225082 2.84385
rclavicle -4.14155e-014 -2.54444e-014
rhumerus -51.6512 -4.65601 -89.1608
rradius 67.6417
rwrist -8.56251
rhand -7.0865 -42.9802
rfingers 7.12502
rthumb 18.7876 -72.0929
lclavicle -4.14155e-014 -2.54444e-014
lhumerus -21.7227 -29.9656 55.0746
lradius 81.6056
lwrist 10.8414
lhand -29.1132 -19.3257
lfingers 7.12502
lthumb -2.46103 10.6398
rfemur -32.4676 21.5565 0.348272
rtibia 24.6126
rfoot 11.6404 -3.84386
rtoes -16.7158
lfemur -66.9727 1.01985 -15.5838
ltibia 71.7539
lfoot 18.7976 10.6056
ltoes -44.615
273
root 11.6136 19.039 10.2576 0.890583 -223.931 337.238
lowerback -25.4593 -5.337 -7.59012
upperback -3.79092 -4.11281 -1.55336
thorax 10.3543 -1.91743 1.23925
lowerneck -0.966722 -0.374381 -4.0244
upperneck 9.22385 -0.68147 6.63197
head 3.21799 -0.16005 2.90283
rclavicle -3.81667e-014 -2.8625e-014
rhumerus -52.0273 -4.62498 -88.9467
rradius 67.6019
rwrist -8.30722
rhand -6.33754 -42.3058
rfingers 7.12502
rthumb 19.5079 -71.3472
lclavicle -3.81667e-014 -2.8625e-014
lhumerus -22.5588 -30.0572 53.7667
lradius 82.613
lwrist 10.4296
lhand -29.1205 -19.4387
lfingers 7.12502
lthumb -2.46808 10.5268
rfemur -31.6663 21.9798 0.807336
rtibia 24.5788
rfoot 13.9125 -4.33538
rtoes -16.434
lfemur -67.7487 1.32801 -15.4798
ltibia 73.6353
lfoot 18.6127 10.569
ltoes -43.872
274
root 11.7067 18.7123 10.2634 1.95936 -221.436 338.473
lowerback -25.5954 -5.57548 -7.97727
upperback -3.96491 -4.28526 -1.42042
thorax 10.2811 -1.99077 1.54642
lowerneck -0.641349 -0.237526 -4.08631
upperneck 9.22846 -0.484683 6.52964
head 3.145 -0.0684111 2.88133
rclavicle -3.32964e-015 -3.65764e-014
rhumerus -52.4712 -4.20065 -88.7508
rradius 67.6041
rwrist -8.99283
rhand -7.07116 -42.3126
rfingers 7.12502
rthumb 18.8024 -71.4239
lclavicle -3.32964e-015 -3.65764e-014
lhumerus -23.3017 -29.9457 53.0542
lradius 83.1571
lwrist 10.9054
lhand -29.0909 -19.4014
lfingers 7.12502
lthumb -2.43952 10.5644
rfemur -31.0908 22.426 1.04049
rtibia 24.4828
rfoot 17.0295 -4.9164
rtoes -12.2442
lfemur -68.6137 1.54584 -15.5646
ltibia 75.6905
lfoot 18.1535 10.422
ltoes -43.4924
275
root 11.787 18.3774 10.2734 3.29126 -218.756 340.056
lowerback -25.7186 -5.77814 -8.03395
upperback -3.97096 -4.52707 -1.2231
thorax 10.3821 -2.10365 1.70647
lowerneck -0.593813 -0.127568 -4.24259
upperneck 9.22372 -0.325566 6.50216
head 3.12583 0.0053825 2.90484
rclavicle 5.81445e-015 1.59028e-014
rhumerus -52.4193 -3.93417 -88.5859
rradius 67.4218
rwrist -9.89046
rhand -8.40488 -42.5267
rfingers 7.12502
rthumb 17.5192 -71.7573
lclavicle 5.81445e-015 1.59028e-014
lhumerus -23.9578 -29.492 52.4556
lradius 83.7583
lwrist 10.9436
lhand -28.6406 -19.5523
lfingers 7.12502
lthumb -2.00462 10.4181
rfemur -30.588 22.5206 1.66312
rtibia 24.4053
rfoot 19.2747 -6.1543
rtoes -5.4734
lfemur -69.7494 1.59934 -15.3773
ltibia 77.8904
lfoot 17.9629 9.59788
ltoes -44.4729
276
root 11.8698 18.0268 10.2734 3.91071 -216.165 341.118
lowerback -25.712 -5.85129 -8.31663
upperback -3.74781 -4.52782 -1.28808
thorax 10.651 -2.12391 1.78091
lowerneck -0.67619 -0.109652 -4.24916
upperneck 9.19649 -0.295424 6.51771
head 3.13042 0.0232448 2.91274
rclavicle 3.27995e-015 -3.65764e-014
rhumerus -52.1228 -4.05528 -88.5209
rradius 67.0428
rwrist -10.1453
rhand -9.39276 -42.9811
rfingers 7.12502
rthumb 16.5683 -72.2938
lclavicle 3.27995e-015 -3.65764e-014
lhumerus -24.0557 -29.651 51.5719
lradius 84.3372
lwrist 11.7719
lhand -28.6743 -19.4852
lfingers 7.12502
lthumb -2.03717 10.4848
rfemur -29.782 22.0359 2.41126
rtibia 24.0932
rfoot 20.9576 -6.21752
rtoes -4.24323
lfemur -70.4358 1.52773 -15.5659
ltibia 79.9605
lfoot 17.9103 8.83303
ltoes -45.7738
277
root 11.9547 17.6674 10.2703 4.49276 -213.648 342.174
lowerback -25.5131 -5.86794 -8.61069
upperback -3.679 -4.47299 -1.32059
thorax 10.6412 -2.10634 1.93838
lowerneck -0.646507 -0.103716 -4.25934
upperneck 9.22631 -0.277786 6.47902
head 3.13366 0.0336859 2.90215
rclavicle -7.65321e-015 -9.06458e-014
rhumerus -52.0714 -4.05176 -88.4456
rradius 66.5939
rwrist -9.92189
rhand -10.1127 -43.8962
rfingers 7.12502
rthumb 15.8751 -73.2654
lclavicle -7.65321e-015 -9.06458e-014
lhumerus -24.1379 -30.2292 50.7646
lradius 84.9361
lwrist 13.1792
lhand -28.7768 -19.2798
lfingers 7.12502
lthumb -2.13613 10.6893
rfemur -29.2082 21.19 3.37341
rtibia 25.2843
rfoot 8.48383 -3.23191
rtoes -5.4766
lfemur -71.0623 1.42054 -15.6863
ltibia 82.1597
lfoot 17.6746 8.82272
ltoes -46.8337
278
root 12.0346 17.3052 10.2628 5.0904 -211.131 343.229
lowerback -25.365 -5.82942 -8.71882
upperback -3.61815 -4.37782 -1.43727
thorax 10.6232 -2.05839 1.90923
lowerneck -0.622478 -0.0824623 -4.17142
upperneck 9.21145 -0.241984 6.44207
head 3.12046 0.0561022 2.87332
rclavicle 2.06637e-013 -1.82882e-014
rhumerus -51.9868 -4.10099 -88.5282
rradius 66.0694
rwrist -9.62716
rhand -10.9125 -44.7938
rfingers 7.12502
rthumb 15.1048 -74.2226
lclavicle 2.06637e-013 -1.82882e-014
lhumerus -23.996 -30.849 49.678
lradius 85.3283
lwrist 14.1637
lhand -28.4743 -19.2394
lfingers 7.12502
lthumb -1.84395 10.7324
rfemur -29.2584 19.7224 4.87974
rtibia 30.4123
rfoot -5.89004 0.747517
rtoes -0.992411
lfemur -71.6179 1.18391 -15.8007
ltibia 84.4198
lfoot 17.481 8.61008
ltoes -48.0645
